# xmcd
#
# Track frame offsets:
#	150
#	15667
#	29500
#	43910
#	62250
#	80600
#	91435
#	105527
#	118112
#	133672
#	149185
#	162992
#	181870
#	192670
#	204020
#	216650
#	231060
#	244550
#	262035
#	282475
#
# Disc length: 3936
#
# Revision: 1
# Processed by: cddbd v1.5.1PL0 Copyright (c) Steve Scherf et al.
# Submitted via: CDex 1.51
# Normalized: r0:DSETVAR1,TDELIM( - )
#
DISCID=2e0f5e14
DTITLE=Various Artist - Line Dance
DYEAR=1998
DGENRE=Country
TTITLE0=Suzy Bogguss - Other Side of the Hill
TTITLE1=Asleep at the Wheel - Meanwhile Back at the Ranch
TTITLE2=Matraca Berg - Baby Walk On
TTITLE3=Chris LeDoux - Honky Tonk World
TTITLE4=Vince Gill - The Radio
TTITLE5=Lari White - Wild at Heart
TTITLE6=Tanya Tucker - Find Out What's Happening
TTITLE7=Ricky Lynn Gregg - Bring on the Neon
TTITLE8=Charlie Daniels - Sweet Little Country Girl
TTITLE9=George Ducas - I'm Pretending
TTITLE10=John Berry - More Than Just a Little
TTITLE11=Earl Thomas Conley - Somewhere Between Right and Wrong
TTITLE12=The Oak Ridge Boys - Walkin' After Midnight
TTITLE13=Emilio - Long as I Got You
TTITLE14=Pirates of the Mississippi - Dream you
TTITLE15=Lacy J Dalton - I'm a Survivor
TTITLE16=Highway 101 - Home on the Range
TTITLE17=Foster and Lloyd - It's a Done Deal
TTITLE18=Aaron Tippin - The Call of the Wild
TTITLE19=Restless Heart - We Got the Love
EXTD=YEAR: 1998
EXTT0=
EXTT1=
EXTT2=
EXTT3=
EXTT4=
EXTT5=
EXTT6=
EXTT7=
EXTT8=
EXTT9=
EXTT10=
EXTT11=
EXTT12=
EXTT13=
EXTT14=
EXTT15=
EXTT16=
EXTT17=
EXTT18=
EXTT19=
PLAYORDER=
